<svg enable-background="new 0 0 600 600" viewBox="0 0 600 600" xmlns="http://www.w3.org/2000/svg" xmlns:xlink="http://www.w3.org/1999/xlink"><linearGradient id="a" gradientTransform="matrix(1 0 0 -1 0 602)" gradientUnits="userSpaceOnUse" x1="88.3" x2="88.3" y1="468" y2="504.9226"><stop offset="0" stop-color="#7f8fb5" stop-opacity="0"/><stop offset=".1755" stop-color="#8595ba" stop-opacity=".1755"/><stop offset=".4096" stop-color="#96a4c7" stop-opacity=".4096"/><stop offset=".6767" stop-color="#b2bedd" stop-opacity=".6767"/><stop offset=".9665" stop-color="#d8e1fb" stop-opacity=".9665"/><stop offset="1" stop-color="#dde6ff"/></linearGradient><clipPath id="b"><circle cx="300" cy="300" r="280"/></clipPath><linearGradient id="c"><stop offset="0" stop-color="#c8d3f5" stop-opacity="0"/><stop offset="1" stop-color="#c8d3f5"/></linearGradient><linearGradient id="d" gradientTransform="matrix(1 0 0 -1 0 602)" gradientUnits="userSpaceOnUse" x1="148" x2="148" xlink:href="#c" y1="2" y2="360.4"/><linearGradient id="e" gradientTransform="matrix(1 0 0 -1 0 602)" gradientUnits="userSpaceOnUse" x1="272.8" x2="272.8" xlink:href="#c" y1="2" y2="512.4"/><linearGradient id="f" gradientTransform="matrix(1 0 0 -1 0 602)" gradientUnits="userSpaceOnUse" x1="429.55" x2="429.55" xlink:href="#c" y1="2" y2="414"/><linearGradient id="g"><stop offset="0" stop-color="#fff"/><stop offset=".3326" stop-color="#fafcff" stop-opacity=".6674"/><stop offset=".7125" stop-color="#ecf1ff" stop-opacity=".2875"/><stop offset="1" stop-color="#dde6ff" stop-opacity="0"/></linearGradient><linearGradient id="h" gradientTransform="matrix(1 0 0 -1 0 602)" gradientUnits="userSpaceOnUse" x1="384.2" x2="384.2" xlink:href="#g" y1="392.5" y2="334.2"/><linearGradient id="i" gradientTransform="matrix(1 0 0 -1 0 602)" gradientUnits="userSpaceOnUse" x1="228" x2="228" xlink:href="#g" y1="456" y2="397.7"/><linearGradient id="j" gradientTransform="matrix(1 0 0 -1 0 602)" gradientUnits="userSpaceOnUse" x1="319.3" x2="319.3" xlink:href="#g" y1="498.5" y2="440.2"/><clipPath id="k"><circle cx="300" cy="300" r="280"/></clipPath><circle cx="300" cy="300" fill="#eef3ff" r="280"/><path d="m29.9 134h116.8s-1.1-33.1-31.6-21.7c0 0-8.2 6-11.6-2.4s-20.5-27.3-38.9 6.9c0 0-3.9 7.7-15.4 1.3-11.5-6.5-19.3 15.9-19.3 15.9z" fill="url(#a)"/><g clip-path="url(#b)"><path d="m99.2 241.6h97.6v358.4h-97.6z" fill="url(#d)"/><path d="m196.8 89.6h152v510.4h-152z" fill="url(#e)"/><path d="m349.2 188h160.7v412h-160.7z" fill="url(#f)"/><path d="m367.4 209.5h33.6v58.3h-33.6z" fill="url(#h)"/><path d="m211.2 146h33.6v58.3h-33.6z" fill="url(#i)"/><path d="m302.5 103.5h33.6v58.3h-33.6z" fill="url(#j)"/></g><g clip-path="url(#k)"><path d="m389.1 627-118.1 29.5c-10.5 2.6-21.2-3.8-23.8-14.3l-65.5-263.1c-2.6-10.5 3.8-21.2 14.3-23.8l118.1-29.4c10.5-2.6 21.2 3.8 23.8 14.3l65.5 263.1c2.7 10.5-3.7 21.1-14.3 23.7z" fill="#73b637"/><path d="m252.5 635.7-63.1-253.4c-1.1-4.3 1.5-8.7 5.8-9.7l127.8-31.8c4.3-1.1 8.7 1.5 9.7 5.8l63.1 253.4c1.1 4.3-1.5 8.7-5.8 9.7l-127.8 31.8c-4.3 1.1-8.7-1.5-9.7-5.8z" fill="#eef3ff"/><path d="m395.8 600-63.1-253.4c-1.1-4.3-5.4-6.9-9.7-5.8l-127.8 31.8c-4.3 1.1-6.9 5.4-5.8 9.7l63.1 253.4c1.1 4.3 5.4 6.9 9.7 5.8l127.8-31.8c4.2-1 6.9-5.4 5.8-9.7zm-9.1 7.7-123.5 31.3c-4.2 1.1-8.4-1.5-9.4-5.7l-61-249c-1-4.2 1.5-8.5 5.6-9.6l123.5-31.3c4.2-1.1 8.4 1.5 9.4 5.7l61 249c1.1 4.2-1.5 8.5-5.6 9.6z" fill="#58931b"/><circle cx="261.5" cy="488.5" fill="#144682" r="10.9"/><circle cx="262.7" cy="493" fill="#fff" r="4.7"/><circle cx="318.7" cy="474.3" fill="#144682" r="10.9"/><circle cx="319.8" cy="478.8" fill="#fff" r="4.7"/><g fill="#144682"><path d="m288.6 516.8c-1.4 0-2.7-.9-3-2.4-2-7.9 3.1-13.5 9-15 6-1.5 13.1 1.1 15 9 .4 1.7-.6 3.3-2.3 3.8-1.7.4-3.3-.6-3.8-2.3-1.1-4.4-4.7-5.2-7.5-4.5s-5.6 3.1-4.5 7.5c.4 1.7-.6 3.3-2.3 3.8-.1.1-.4.1-.6.1z"/><circle cx="338.6" cy="486.9" r="4.7"/><circle cx="249.9" cy="509" r="4.7"/></g></g><path d="m373.5 259.4c-28.3 0-54.3-10.5-74.1-27.8l39.9-39.9c1.2 6.7 4.4 13.2 9.6 18.4 6.8 6.8 15.7 10.2 24.6 10.2s17.8-3.4 24.6-10.2c13.6-13.6 13.6-35.6 0-49.2-5.2-5.2-11.6-8.4-18.4-9.6l16.2-16.2c6.1 2.7 11.7 6.6 16.6 11.4 3 3 8 3 11 0s3-8 0-11c-4.8-4.8-10.2-8.8-16-12l15.9-15.9c5.5 3.6 10.7 7.7 15.5 12.5 1.5 1.5 3.5 2.3 5.5 2.3s4-.8 5.5-2.3c3-3 3-8 0-11-4.7-4.7-9.9-9-15.3-12.7l23.9-23.9c17.3 19.9 27.8 45.8 27.8 74.1.2 62.1-50.5 112.8-112.8 112.8zm0-93.2c4.9 0 9.8 1.9 13.6 5.6 7.5 7.5 7.5 19.6 0 27.1s-19.6 7.5-27.1 0-7.5-19.6 0-27.1c3.7-3.7 8.6-5.6 13.5-5.6zm0-132.8c28.3 0 54.3 10.5 74.1 27.8l-26.8 26.8c-14.6-7.1-30.6-10.8-47.3-10.8-28.9 0-56.1 11.3-76.5 31.7-3 3-3 8 0 11s8 3 11 0c17.5-17.5 40.7-27.1 65.5-27.1 12.4 0 24.4 2.4 35.5 7l-17.2 17.2c-5.9-1.6-12-2.4-18.3-2.4-18.9 0-36.7 7.4-50 20.7-3 3-3 8 0 11 1.5 1.5 3.5 2.3 5.5 2.3s4-.8 5.5-2.3c10.4-10.4 24.3-16.2 39-16.2 1.6 0 3.3.1 4.9.2l-90.1 90.1c-17.3-19.9-27.8-45.8-27.8-74.1 0-62.2 50.7-112.9 113-112.9zm90.9 22c-24.3-24.3-56.6-37.7-90.9-37.7s-66.7 13.4-90.9 37.7c-24.3 24.3-37.7 56.6-37.7 90.9s13.4 66.7 37.7 90.9c24.3 24.3 56.6 37.7 90.9 37.7s66.7-13.4 90.9-37.7c24.3-24.3 37.7-56.6 37.7-90.9s-13.4-66.6-37.7-90.9z" fill="#144682"/><path d="m473.2 298.9c-.8 0-1.6-.3-2.2-.9-1.2-1.2-1.2-3.1 0-4.3l8.5-8.5c1.2-1.2 3.1-1.2 4.3 0s1.2 3.1 0 4.3l-8.5 8.5c-.5.6-1.3.9-2.1.9z"/><path d="m456.3 315.9c-.8 0-1.6-.3-2.2-.9-1.2-1.2-1.2-3.1 0-4.3l8.5-8.5c1.2-1.2 3.1-1.2 4.3 0s1.2 3.1 0 4.3l-8.5 8.5c-.6.6-1.3.9-2.1.9z"/><path d="m481.7 315.9c-.8 0-1.6-.3-2.2-.9l-8.5-8.5c-1.2-1.2-1.2-3.1 0-4.3s3.1-1.2 4.3 0l8.5 8.5c1.2 1.2 1.2 3.1 0 4.3-.5.6-1.3.9-2.1.9z"/><path d="m464.8 298.9c-.8 0-1.6-.3-2.2-.9l-8.5-8.5c-1.2-1.2-1.2-3.1 0-4.3s3.1-1.2 4.3 0l8.5 8.5c1.2 1.2 1.2 3.1 0 4.3-.6.6-1.4.9-2.1.9z"/><path d="m80 442.5c-.8 0-1.6-.3-2.2-.9-1.2-1.2-1.2-3.1 0-4.3l8.5-8.5c1.2-1.2 3.1-1.2 4.3 0s1.2 3.1 0 4.3l-8.5 8.5c-.6.6-1.3.9-2.1.9z"/><path d="m63 459.5c-.8 0-1.6-.3-2.2-.9-1.2-1.2-1.2-3.1 0-4.3l8.5-8.5c1.2-1.2 3.1-1.2 4.3 0s1.2 3.1 0 4.3l-8.5 8.5c-.5.6-1.3.9-2.1.9z"/><path d="m88.5 459.5c-.8 0-1.6-.3-2.2-.9l-8.5-8.5c-1.2-1.2-1.2-3.1 0-4.3s3.1-1.2 4.3 0l8.5 8.5c1.2 1.2 1.2 3.1 0 4.3-.6.6-1.4.9-2.1.9z"/><path d="m71.5 442.5c-.8 0-1.6-.3-2.2-.9l-8.5-8.5c-1.2-1.2-1.2-3.1 0-4.3s3.1-1.2 4.3 0l8.5 8.5c1.2 1.2 1.2 3.1 0 4.3-.6.6-1.3.9-2.1.9z"/><path d="m156.4 172.6c-8.8 0-16-7.2-16-16s7.2-16 16-16 16 7.2 16 16-7.2 16-16 16zm0-26c-5.5 0-10 4.5-10 10s4.5 10 10 10 10-4.5 10-10-4.5-10-10-10z"/><path d="m547 547c-8.8 0-16-7.2-16-16s7.2-16 16-16 16 7.2 16 16-7.2 16-16 16zm0-26c-5.5 0-10 4.5-10 10s4.5 10 10 10 10-4.5 10-10-4.5-10-10-10z"/></svg>